<svg width="241" height="117" viewBox="0 0 241 117" fill="none" xmlns="http://www.w3.org/2000/svg">
<path d="M38 12L8 35.5L38 59" stroke="#262626" stroke-width="5"/>
<path d="M119.477 47.9297L120.355 36.3086C125.141 36.3086 129.275 35.3158 132.758 33.3301C136.241 31.3118 139.105 28.6263 141.352 25.2734C143.63 21.888 145.307 18.0794 146.381 13.8477C147.488 9.58333 148.041 5.1888 148.041 0.664062H159.906C159.906 6.81641 158.995 12.7246 157.172 18.3887C155.382 24.0527 152.745 29.1146 149.262 33.5742C145.811 38.0013 141.579 41.5007 136.566 44.0723C131.553 46.6439 125.857 47.9297 119.477 47.9297ZM112.836 70V0.664062H124.604V70H112.836ZM148.969 70L133.588 38.0664L144.281 33.0859L163.227 70H148.969Z" fill="#262626"/>
<path d="M56.5273 70V0.664062H68.2949V70H56.5273ZM56.5273 70V59.1602H103.402V70H56.5273ZM56.5273 40.7031V29.8633H94.6133V40.7031H56.5273ZM56.5273 11.5039V0.664062H103.402V11.5039H56.5273Z" fill="#262626"/>
<path d="M203 59L233 35.5L203 12" stroke="#262626" stroke-width="5"/>
<path d="M191 10L177 61" stroke="#262626" stroke-width="5"/>
<path d="M84.2194 111.9H92.6794C95.5594 111.9 96.9994 110.42 96.9994 107.46V87.96C96.9994 85 95.5594 83.52 92.6794 83.52H84.2194C83.7794 83.52 83.5594 83.72 83.5594 84.12V111.24C83.5594 111.68 83.7794 111.9 84.2194 111.9ZM77.7394 115.98V79.44C77.7394 78.76 78.0794 78.42 78.7594 78.42H93.5194C96.4394 78.42 98.7194 79.24 100.359 80.88C102.039 82.48 102.879 84.76 102.879 87.72V107.7C102.879 110.62 102.039 112.9 100.359 114.54C98.7194 116.18 96.4394 117 93.5194 117H78.7594C78.0794 117 77.7394 116.66 77.7394 115.98Z" fill="#262626"/>
<path d="M141.686 117H122.486C121.806 117 121.466 116.66 121.466 115.98V79.44C121.466 78.76 121.806 78.42 122.486 78.42H141.686C142.326 78.42 142.646 78.76 142.646 79.44V82.5C142.646 83.18 142.326 83.52 141.686 83.52H128.006C127.526 83.52 127.286 83.72 127.286 84.12V94.26C127.286 94.66 127.526 94.86 128.006 94.86H139.586C140.306 94.86 140.666 95.2 140.666 95.88V98.94C140.666 99.62 140.306 99.96 139.586 99.96H128.006C127.526 99.96 127.286 100.16 127.286 100.56V111.24C127.286 111.68 127.526 111.9 128.006 111.9H141.686C142.326 111.9 142.646 112.24 142.646 112.92V115.98C142.646 116.66 142.326 117 141.686 117Z" fill="#262626"/>
<path d="M174.539 117H168.599C167.919 117 167.499 116.66 167.339 115.98L157.379 79.56C157.139 78.8 157.439 78.42 158.279 78.42H162.539C163.179 78.42 163.559 78.76 163.679 79.44L171.419 110.76H171.659L179.339 79.44C179.499 78.76 179.899 78.42 180.539 78.42H184.739C185.579 78.42 185.899 78.8 185.699 79.56L175.679 115.98C175.519 116.66 175.139 117 174.539 117Z" fill="#262626"/>
<path d="M215.638 116.42H195.358C194.678 116.42 194.338 116.06 194.338 115.34V114.08C194.338 113.4 194.678 113.06 195.358 113.06H215.638C216.318 113.06 216.658 113.4 216.658 114.08V115.34C216.658 116.06 216.318 116.42 215.638 116.42Z" fill="#262626"/>
<path d="M31.984 117H30.214C28.854 117 27.794 116.61 27.034 115.83C26.274 115.05 25.894 113.96 25.894 112.56V106.14C25.894 104.74 26.274 103.65 27.034 102.87C27.794 102.09 28.854 101.7 30.214 101.7H31.984C33.544 101.7 34.574 102.23 35.074 103.29H35.194V96.33C35.194 96.05 35.324 95.91 35.584 95.91H36.964C37.224 95.91 37.354 96.05 37.354 96.33V116.58C37.354 116.86 37.224 117 36.964 117H35.584C35.324 117 35.194 116.86 35.194 116.58V115.41H35.074C34.574 116.47 33.544 117 31.984 117ZM35.194 112.32V106.38C35.194 105.5 34.954 104.82 34.474 104.34C33.994 103.86 33.304 103.62 32.404 103.62H30.574C28.914 103.62 28.084 104.49 28.084 106.23V112.47C28.084 114.21 28.914 115.08 30.574 115.08H32.404C33.304 115.08 33.994 114.84 34.474 114.36C34.954 113.88 35.194 113.2 35.194 112.32ZM48.207 117H45.627C44.247 117 43.157 116.61 42.357 115.83C41.577 115.05 41.187 113.96 41.187 112.56V106.14C41.187 104.74 41.577 103.65 42.357 102.87C43.157 102.09 44.247 101.7 45.627 101.7H48.207C49.587 101.7 50.667 102.09 51.447 102.87C52.247 103.65 52.647 104.74 52.647 106.14V112.56C52.647 113.96 52.247 115.05 51.447 115.83C50.667 116.61 49.587 117 48.207 117ZM45.867 115.08H47.967C49.647 115.08 50.487 114.22 50.487 112.5V106.2C50.487 104.48 49.647 103.62 47.967 103.62H45.867C44.187 103.62 43.347 104.48 43.347 106.2V112.5C43.347 114.22 44.187 115.08 45.867 115.08ZM57.057 103.62H55.407C55.127 103.62 54.987 103.49 54.987 103.23V102.12C54.987 101.84 55.127 101.7 55.407 101.7H57.057C57.257 101.7 57.357 101.61 57.357 101.43V98.85C57.357 98.57 57.497 98.43 57.777 98.43H59.127C59.387 98.43 59.517 98.57 59.517 98.85V101.43C59.517 101.61 59.627 101.7 59.847 101.7H63.027C63.327 101.7 63.477 101.84 63.477 102.12V103.23C63.477 103.49 63.327 103.62 63.027 103.62H59.847C59.627 103.62 59.517 103.71 59.517 103.89V112.53C59.517 114.23 60.397 115.08 62.157 115.08H63.327C63.627 115.08 63.777 115.22 63.777 115.5V116.61C63.777 116.87 63.627 117 63.327 117H61.887C60.507 117 59.407 116.62 58.587 115.86C57.767 115.08 57.357 114 57.357 112.62V103.89C57.357 103.71 57.257 103.62 57.057 103.62Z" fill="#262626"/>
</svg>
