<svg width="241" height="71" viewBox="0 0 241 71" fill="none" xmlns="http://www.w3.org/2000/svg">
<path d="M38 12L8 35.5L38 59" stroke="#262626" stroke-width="5"/>
<path d="M119.477 47.9297L120.355 36.3086C125.141 36.3086 129.275 35.3158 132.758 33.3301C136.241 31.3118 139.105 28.6263 141.352 25.2734C143.63 21.888 145.307 18.0794 146.381 13.8477C147.488 9.58333 148.041 5.1888 148.041 0.664062H159.906C159.906 6.81641 158.995 12.7246 157.172 18.3887C155.382 24.0527 152.745 29.1146 149.262 33.5742C145.811 38.0013 141.579 41.5007 136.566 44.0723C131.553 46.6439 125.857 47.9297 119.477 47.9297ZM112.836 70V0.664062H124.604V70H112.836ZM148.969 70L133.588 38.0664L144.281 33.0859L163.227 70H148.969Z" fill="#262626"/>
<path d="M56.5273 70V0.664062H68.2949V70H56.5273ZM56.5273 70V59.1602H103.402V70H56.5273ZM56.5273 40.7031V29.8633H94.6133V40.7031H56.5273ZM56.5273 11.5039V0.664062H103.402V11.5039H56.5273Z" fill="#262626"/>
<path d="M203 59L233 35.5L203 12" stroke="#262626" stroke-width="5"/>
<path d="M191 10L177 61" stroke="#262626" stroke-width="5"/>
</svg>
