<svg width="245" height="245" viewBox="0 0 245 245" fill="none" xmlns="http://www.w3.org/2000/svg">
<path d="M48.0974 184H41.5574C38.3974 184 35.9574 183.16 34.2374 181.48C32.5174 179.8 31.6574 177.38 31.6574 174.22V155.2C31.6574 152.04 32.5174 149.62 34.2374 147.94C35.9574 146.26 38.3974 145.42 41.5574 145.42H48.0974C51.2174 145.42 53.6374 146.28 55.3574 148C57.1174 149.68 57.9974 152.08 57.9974 155.2V158.02C57.9974 158.9 57.5574 159.34 56.6774 159.34H51.6374C50.7974 159.34 50.3774 158.9 50.3774 158.02V155.56C50.3774 154.28 50.0974 153.38 49.5374 152.86C49.0174 152.3 48.1174 152.02 46.8374 152.02H42.7574C41.5174 152.02 40.6174 152.3 40.0574 152.86C39.5374 153.38 39.2774 154.28 39.2774 155.56V173.86C39.2774 175.14 39.5374 176.06 40.0574 176.62C40.6174 177.14 41.5174 177.4 42.7574 177.4H46.8374C48.1174 177.4 49.0174 177.14 49.5374 176.62C50.0974 176.06 50.3774 175.14 50.3774 173.86V171.4C50.3774 170.52 50.7974 170.08 51.6374 170.08H56.6774C57.5574 170.08 57.9974 170.52 57.9974 171.4V174.22C57.9974 177.34 57.1174 179.76 55.3574 181.48C53.6374 183.16 51.2174 184 48.0974 184Z" fill="#F9F9F9"/>
<path d="M95.8473 177.4H100.107C101.387 177.4 102.287 177.14 102.807 176.62C103.367 176.06 103.647 175.14 103.647 173.86V155.56C103.647 154.28 103.367 153.38 102.807 152.86C102.287 152.3 101.387 152.02 100.107 152.02H95.8473C94.5673 152.02 93.6673 152.3 93.1473 152.86C92.6273 153.38 92.3673 154.28 92.3673 155.56V173.86C92.3673 175.14 92.6273 176.06 93.1473 176.62C93.6673 177.14 94.5673 177.4 95.8473 177.4ZM101.367 184H94.6473C91.4873 184 89.0473 183.16 87.3273 181.48C85.6073 179.8 84.7473 177.38 84.7473 174.22V155.2C84.7473 152.04 85.6073 149.62 87.3273 147.94C89.0473 146.26 91.4873 145.42 94.6473 145.42H101.367C104.527 145.42 106.967 146.26 108.687 147.94C110.407 149.62 111.267 152.04 111.267 155.2V174.22C111.267 177.38 110.407 179.8 108.687 181.48C106.967 183.16 104.527 184 101.367 184Z" fill="#F9F9F9"/>
<path d="M147.598 177.4H154.138C155.418 177.4 156.318 177.14 156.838 176.62C157.398 176.06 157.678 175.14 157.678 173.86V155.56C157.678 154.28 157.398 153.38 156.838 152.86C156.318 152.3 155.418 152.02 154.138 152.02H147.598C147.158 152.02 146.938 152.24 146.938 152.68V176.74C146.938 177.18 147.158 177.4 147.598 177.4ZM139.318 182.74V146.68C139.318 145.84 139.738 145.42 140.578 145.42H155.398C158.518 145.42 160.938 146.28 162.658 148C164.418 149.68 165.298 152.08 165.298 155.2V174.22C165.298 177.34 164.418 179.76 162.658 181.48C160.938 183.16 158.518 184 155.398 184H140.578C139.738 184 139.318 183.58 139.318 182.74Z" fill="#F9F9F9"/>
<path d="M213.925 184H194.305C193.465 184 193.045 183.58 193.045 182.74V146.68C193.045 145.84 193.465 145.42 194.305 145.42H213.925C214.725 145.42 215.125 145.84 215.125 146.68V150.76C215.125 151.6 214.725 152.02 213.925 152.02H201.385C200.905 152.02 200.665 152.24 200.665 152.68V160.48C200.665 160.92 200.905 161.14 201.385 161.14H211.645C212.485 161.14 212.905 161.56 212.905 162.4V166.48C212.905 167.32 212.485 167.74 211.645 167.74H201.385C200.905 167.74 200.665 167.96 200.665 168.4V176.74C200.665 177.18 200.905 177.4 201.385 177.4H213.925C214.725 177.4 215.125 177.82 215.125 178.66V182.74C215.125 183.58 214.725 184 213.925 184Z" fill="#F9F9F9"/>
<path d="M40 73L10 96.5L40 120" stroke="#F9F9F9" stroke-width="8"/>
<path d="M121.477 108.93L122.355 99.2617C127.368 99.2617 131.698 98.2201 135.344 96.1367C138.99 94.0208 141.984 91.1888 144.328 87.6406C146.704 84.0599 148.462 80.0397 149.602 75.5801C150.773 71.0879 151.359 66.4492 151.359 61.6641H161.418C161.418 67.8164 160.523 73.7246 158.732 79.3887C156.942 85.0527 154.338 90.1146 150.92 94.5742C147.502 99.0013 143.319 102.501 138.371 105.072C133.423 107.644 127.792 108.93 121.477 108.93ZM115.324 131V61.6641H125.48V131H115.324ZM152.922 131L135.344 97.2109L144.133 92.2305L164.738 131H152.922Z" fill="#F9F9F9"/>
<path d="M59.0156 131V61.6641H69.1719V131H59.0156ZM59.0156 131V121.723H104.914V131H59.0156ZM59.0156 100.922V91.6445H96.125V100.922H59.0156ZM59.0156 70.9414V61.6641H104.914V70.9414H59.0156Z" fill="#F9F9F9"/>
<path d="M205 120L235 96.5L205 73" stroke="#F9F9F9" stroke-width="8"/>
<path d="M193 71L179 122" stroke="#F9F9F9" stroke-width="8"/>
</svg>
