<svg width="19" height="18" viewBox="0 0 19 18" fill="none" xmlns="http://www.w3.org/2000/svg">
<path d="M9.16667 0C7.96288 0 6.77089 0.237103 5.65873 0.697771C4.54658 1.15844 3.53606 1.83365 2.68485 2.68485C0.965771 4.40394 0 6.73552 0 9.16667C0 13.2183 2.63083 16.6558 6.27 17.875C6.72833 17.9483 6.875 17.6642 6.875 17.4167V15.8675C4.33583 16.4175 3.795 14.6392 3.795 14.6392C3.37333 13.5758 2.7775 13.2917 2.7775 13.2917C1.94333 12.7233 2.84167 12.7417 2.84167 12.7417C3.75833 12.8058 4.24417 13.6858 4.24417 13.6858C5.04167 15.0792 6.38917 14.6667 6.91167 14.4467C6.99417 13.8508 7.2325 13.4475 7.48917 13.2183C5.45417 12.9892 3.31833 12.2008 3.31833 8.70833C3.31833 7.69083 3.66667 6.875 4.2625 6.22417C4.17083 5.995 3.85 5.04167 4.35417 3.80417C4.35417 3.80417 5.12417 3.55667 6.875 4.73917C7.59917 4.5375 8.3875 4.43667 9.16667 4.43667C9.94583 4.43667 10.7342 4.5375 11.4583 4.73917C13.2092 3.55667 13.9792 3.80417 13.9792 3.80417C14.4833 5.04167 14.1625 5.995 14.0708 6.22417C14.6667 6.875 15.015 7.69083 15.015 8.70833C15.015 12.21 12.87 12.98 10.8258 13.2092C11.1558 13.4933 11.4583 14.0525 11.4583 14.905V17.4167C11.4583 17.6642 11.605 17.9575 12.0725 17.875C15.7117 16.6467 18.3333 13.2183 18.3333 9.16667C18.3333 7.96288 18.0962 6.77089 17.6356 5.65874C17.1749 4.54658 16.4997 3.53606 15.6485 2.68485C14.7973 1.83365 13.7867 1.15844 12.6746 0.697771C11.5624 0.237103 10.3705 0 9.16667 0Z" fill="black"/>
</svg>
