<svg width="16" height="16" viewBox="0 0 16 16" fill="none" xmlns="http://www.w3.org/2000/svg">
<path d="M5.95216 12.265C5.95216 12.265 5.35629 12.6118 6.37679 12.7288C7.61329 12.87 8.24516 12.8498 9.60741 12.5923C9.60741 12.5923 9.96629 12.8166 10.4665 13.0111C7.41166 14.3199 3.55304 12.9353 5.95216 12.265ZM5.57866 10.5569C5.57866 10.5569 4.91016 11.0518 5.93154 11.1575C7.25241 11.2939 8.29529 11.305 10.1008 10.9575C10.1008 10.9575 10.3499 11.2106 10.7423 11.3489C7.04954 12.4289 2.93654 11.4339 5.57866 10.5569Z" fill="#0074BD"/>
<path d="M8.72519 7.65887C9.47832 8.52575 8.52769 9.30512 8.52769 9.30512C8.52769 9.30512 10.4388 8.31875 9.56132 7.083C8.74144 5.93112 8.11294 5.359 11.5157 3.3855C11.5157 3.38562 6.17432 4.71925 8.72519 7.65887Z" fill="#EA2D2E"/>
<path d="M12.7654 13.5286C12.7654 13.5286 13.2066 13.8924 12.2794 14.1735C10.5167 14.7075 4.94118 14.8685 3.39268 14.1949C2.8363 13.9526 3.88005 13.6167 4.20843 13.5459C4.5508 13.4717 4.7463 13.4852 4.7463 13.4852C4.12718 13.0494 0.744676 14.3415 3.02843 14.7121C9.25605 15.7216 14.3806 14.2575 12.7654 13.5286ZM6.23905 8.78675C6.23905 8.78675 3.4033 9.46037 5.23493 9.70525C6.00843 9.80875 7.54968 9.785 8.9863 9.6645C10.1601 9.56587 11.3379 9.35525 11.3379 9.35525C11.3379 9.35525 10.9244 9.53262 10.6249 9.73687C7.74468 10.4945 2.18193 10.1416 3.78355 9.36712C5.13755 8.71225 6.23905 8.78675 6.23905 8.78675ZM11.3262 11.6301C14.2538 10.1092 12.9001 8.64762 11.9552 8.8445C11.7242 8.89262 11.6206 8.9345 11.6206 8.9345C11.6206 8.9345 11.7066 8.79962 11.8706 8.74162C13.7397 8.08475 15.1769 10.6795 11.2677 11.7072C11.2677 11.707 11.3126 11.6664 11.3262 11.6301Z" fill="#0074BD"/>
<path d="M9.5614 0.198486C9.5614 0.198486 11.1824 1.82049 8.02352 4.31386C5.49027 6.31461 7.4459 7.45511 8.02265 8.75874C6.54377 7.42461 5.45902 6.24999 6.18665 5.15686C7.25515 3.55261 10.2153 2.77449 9.5614 0.198486Z" fill="#EA2D2E"/>
<path d="M6.5268 15.7527C9.3363 15.9324 13.6518 15.6527 13.7539 14.3232C13.7539 14.3232 13.5575 14.8272 11.4318 15.2271C9.03355 15.6786 6.07505 15.626 4.32092 15.3364C4.32092 15.3365 4.6803 15.634 6.5268 15.7527Z" fill="#0074BD"/>
</svg>
