<svg width="20" height="22" viewBox="0 0 20 22" fill="none" xmlns="http://www.w3.org/2000/svg">
<path d="M6.19995 11C6.19995 5.477 7.98995 1 10.2 1C12.41 1 14.2 5.477 14.2 11C14.2 16.523 12.41 21 10.2 21C7.98995 21 6.19995 16.523 6.19995 11Z" stroke="black" stroke-width="1.5"/>
<path d="M8.17497 7.62003C13.017 4.85803 17.849 4.17003 18.967 6.08303C20.085 7.99603 17.067 11.786 12.225 14.547C7.38297 17.308 2.55097 17.997 1.43297 16.083C0.314969 14.17 3.33297 10.382 8.17497 7.62003Z" stroke="black" stroke-width="1.5"/>
<path d="M12.225 7.62003C17.067 10.38 20.085 14.17 18.967 16.083C17.849 17.997 13.017 17.309 8.17497 14.547C3.33297 11.785 0.314969 7.99703 1.43297 6.08303C2.54997 4.17003 7.38297 4.85803 12.225 7.62003Z" stroke="black" stroke-width="1.5"/>
<path d="M11.7 11C11.7 11.3978 11.5419 11.7794 11.2606 12.0607C10.9793 12.342 10.5978 12.5 10.2 12.5C9.80213 12.5 9.4206 12.342 9.13929 12.0607C8.85799 11.7794 8.69995 11.3978 8.69995 11C8.69995 10.6022 8.85799 10.2206 9.13929 9.93934C9.4206 9.65804 9.80213 9.5 10.2 9.5C10.5978 9.5 10.9793 9.65804 11.2606 9.93934C11.5419 10.2206 11.7 10.6022 11.7 11Z" stroke="black" stroke-width="1.5"/>
</svg>
